<?xml version="1.0" standalone="no"?>
<!DOCTYPE svg PUBLIC "-//W3C//DTD SVG 20010904//EN"
 "http://www.w3.org/TR/2001/REC-SVG-20010904/DTD/svg10.dtd">
<svg version="1.0" xmlns="http://www.w3.org/2000/svg"
 width="500.000000pt" height="500.000000pt" viewBox="0 0 500.000000 500.000000"
 preserveAspectRatio="xMidYMid meet">

<g transform="translate(0.000000,500.000000) scale(0.100000,-0.100000)"
fill="#000000" stroke="none">
<path d="M633 4989 c-253 -42 -480 -226 -578 -466 -57 -142 -55 -67 -55 -1848
l0 -1635 78 65 c101 85 245 158 382 192 91 23 126 27 270 27 91 1 200 -3 244
-7 l79 -8 -7 28 c-14 65 -19 374 -6 460 l12 88 -35 85 c-77 186 -108 335 -114
550 -6 182 4 287 42 434 147 580 609 1018 1210 1148 135 29 443 32 580 5 117
-23 266 -69 352 -109 l68 -31 225 -2 c124 0 244 -5 268 -9 l43 -9 -8 89 c-4
49 -7 161 -7 249 1 138 5 174 28 260 41 157 102 274 208 398 l49 57 -1638 -1
c-901 -1 -1662 -5 -1690 -10z"/>
<path d="M4043 4922 l78 -78 -22 -20 c-31 -28 -102 -130 -133 -191 -53 -106
-70 -194 -71 -363 0 -164 11 -317 25 -340 11 -18 82 -28 260 -36 183 -8 299 8
416 57 73 31 192 108 228 148 l20 22 78 -78 78 -78 0 165 c0 91 -5 194 -11
230 -51 321 -308 577 -630 629 -35 6 -138 11 -229 11 l-165 0 78 -78z"/>
<path d="M4966 3931 c-39 -41 -156 -121 -231 -159 -146 -73 -340 -108 -551
-98 -77 3 -162 9 -189 13 -47 6 -48 6 -41 -18 4 -13 10 -107 13 -209 5 -153 3
-204 -12 -287 l-18 -101 27 -103 c40 -161 50 -241 50 -414 0 -112 -6 -189 -18
-255 -38 -197 -126 -417 -233 -584 l-45 -69 486 -486 c367 -368 490 -497 505
-531 64 -142 -29 -311 -187 -336 -25 -4 -61 0 -98 11 -58 16 -64 22 -554 509
l-495 493 -55 -39 c-30 -21 -109 -65 -175 -97 -206 -102 -389 -149 -616 -158
-166 -7 -293 5 -445 43 l-101 24 -84 -22 c-73 -20 -110 -22 -289 -23 -113 0
-227 3 -254 7 l-49 8 7 -53 c25 -205 16 -420 -25 -569 -29 -108 -100 -244
-179 -341 l-69 -87 1627 0 c1077 0 1649 4 1691 11 261 42 486 222 586 467 58
142 56 70 53 1850 l-3 1633 -29 -30z"/>
<path d="M3577 3654 c51 -54 109 -121 130 -151 20 -29 38 -51 41 -48 9 9 -21
255 -32 264 -9 7 -173 31 -218 31 -7 0 29 -43 79 -96z"/>
<path d="M2330 3643 c-454 -69 -788 -356 -916 -788 -22 -74 -27 -117 -31 -237
-3 -81 -3 -158 1 -172 l6 -26 58 44 c109 81 228 134 377 167 67 15 357 19 474
6 l74 -7 -7 37 c-14 83 -18 340 -7 426 25 188 90 349 195 485 44 57 45 60 23
66 -23 6 -205 6 -247 -1z"/>
<path d="M2788 3513 c-30 -32 -63 -71 -73 -86 l-18 -29 351 -351 351 -351 39
28 c76 52 79 58 59 132 -55 211 -190 415 -369 558 -76 61 -241 156 -270 156
-8 0 -40 -26 -70 -57z"/>
<path d="M2586 3143 c-25 -107 -11 -518 18 -542 15 -12 216 -31 335 -31 84 0
218 16 231 27 5 4 -561 573 -571 573 -4 0 -10 -12 -13 -27z"/>
<path d="M3455 2474 c-81 -50 -227 -98 -355 -115 -85 -12 -383 -7 -444 7 -29
7 -29 7 -22 -32 14 -84 19 -340 7 -427 -16 -120 -54 -247 -102 -341 l-41 -79
69 8 c422 45 786 339 919 742 20 62 54 233 54 276 0 12 -13 7 -85 -39z"/>
<path d="M1896 2420 c-26 -5 -55 -11 -64 -15 -12 -4 59 -81 273 -295 159 -159
293 -286 297 -282 13 13 28 136 28 231 0 122 -20 317 -34 336 -21 28 -376 45
-500 25z"/>
<path d="M1554 2271 c-21 -16 -54 -44 -72 -63 l-33 -35 51 -101 c103 -201 270
-365 475 -467 127 -62 251 -101 272 -84 7 6 22 27 34 46 l22 35 -349 349
c-192 192 -352 349 -355 349 -3 0 -24 -13 -45 -29z"/>
<path d="M1251 1520 c0 -30 6 -98 12 -150 l12 -95 40 -7 c22 -4 101 -10 175
-13 109 -5 131 -4 115 6 -61 38 -152 114 -247 208 l-108 106 1 -55z"/>
<path d="M545 1095 c-132 -29 -250 -88 -340 -169 l-50 -44 -77 76 -78 77 0
-173 c0 -187 14 -282 55 -385 81 -199 251 -361 451 -431 103 -36 179 -46 364
-46 l165 0 -77 78 -77 77 55 65 c74 88 131 206 156 327 18 85 19 119 14 258
-7 166 -17 260 -29 272 -30 29 -421 42 -532 18z"/>
</g>
</svg>
